<svg xmlns="http://www.w3.org/2000/svg" xmlns:xlink="http://www.w3.org/1999/xlink" width="1080" height="1080" viewBox="0 0 1080 1080"><defs><clipPath id="b"><rect width="1080" height="1080"/></clipPath></defs><g id="a" clip-path="url(#b)"><rect width="1080" height="1080" fill="#60c848"/><g transform="translate(-11 390)" fill="#9d9d9d" stroke="#fff" stroke-width="8"><rect width="1100" height="300" stroke="none"/><rect x="4" y="4" width="1092" height="292" fill="none"/></g><g transform="translate(389 1090) rotate(-90)" fill="#9d9d9d" stroke="#fff" stroke-width="8"><rect width="1100" height="300" stroke="none"/><rect x="4" y="4" width="1092" height="292" fill="none"/></g><rect width="367" height="284" transform="translate(362 398)" fill="#9d9d9d"/><g transform="translate(1080 540.5) rotate(180)"><line x2="93.913" transform="translate(0)" fill="none" stroke="#fff" stroke-width="4"/></g><g transform="translate(540 1080) rotate(-90)"><line x2="93.913" transform="translate(0)" fill="none" stroke="#fff" stroke-width="4"/></g><g transform="translate(939.13 540.5) rotate(180)"><line x2="93.913" transform="translate(0)" fill="none" stroke="#fff" stroke-width="4"/></g><g transform="translate(540 939.13) rotate(-90)"><line x2="93.913" transform="translate(0)" fill="none" stroke="#fff" stroke-width="4"/></g><g transform="translate(798.261 540.5) rotate(180)"><line x2="93.913" transform="translate(0)" fill="none" stroke="#fff" stroke-width="4"/></g><g transform="translate(540 798.261) rotate(-90)"><line x2="93.913" transform="translate(0)" fill="none" stroke="#fff" stroke-width="4"/></g><g transform="translate(375.652 540.5) rotate(180)"><line x2="93.913" transform="translate(0)" fill="none" stroke="#fff" stroke-width="4"/></g><g transform="translate(540 375.652) rotate(-90)"><line x2="93.913" transform="translate(0)" fill="none" stroke="#fff" stroke-width="4"/></g><g transform="translate(234.783 540.5) rotate(180)"><line x2="93.913" transform="translate(0)" fill="none" stroke="#fff" stroke-width="4"/></g><g transform="translate(540 234.783) rotate(-90)"><line x2="93.913" transform="translate(0)" fill="none" stroke="#fff" stroke-width="4"/></g><g transform="translate(93.913 540.5) rotate(180)"><line x2="93.913" transform="translate(0)" fill="none" stroke="#fff" stroke-width="4"/></g><g transform="translate(540 93.913) rotate(-90)"><line x2="93.913" transform="translate(0)" fill="none" stroke="#fff" stroke-width="4"/></g></g></svg>