<svg xmlns="http://www.w3.org/2000/svg" xmlns:xlink="http://www.w3.org/1999/xlink" width="1080" height="1080" viewBox="0 0 1080 1080"><defs><filter id="a" x="690" y="293" width="93.191" height="93.213" filterUnits="userSpaceOnUse"><feOffset dy="3" input="SourceAlpha"/><feGaussianBlur stdDeviation="3" result="b"/><feFlood flood-opacity="0.161"/><feComposite operator="in" in2="b"/><feComposite in="SourceGraphic"/></filter><filter id="c" x="690" y="701" width="93.191" height="93.213" filterUnits="userSpaceOnUse"><feOffset dy="3" input="SourceAlpha"/><feGaussianBlur stdDeviation="3" result="d"/><feFlood flood-opacity="0.161"/><feComposite operator="in" in2="d"/><feComposite in="SourceGraphic"/></filter><filter id="e" x="750.419" y="270.198" width="139.584" height="139.584" filterUnits="userSpaceOnUse"><feOffset dy="3" input="SourceAlpha"/><feGaussianBlur stdDeviation="3" result="f"/><feFlood flood-opacity="0.161"/><feComposite operator="in" in2="f"/><feComposite in="SourceGraphic"/></filter><filter id="g" x="119.419" y="288.198" width="139.584" height="139.584" filterUnits="userSpaceOnUse"><feOffset dy="3" input="SourceAlpha"/><feGaussianBlur stdDeviation="3" result="h"/><feFlood flood-opacity="0.161"/><feComposite operator="in" in2="h"/><feComposite in="SourceGraphic"/></filter><filter id="i" x="666.419" y="757.198" width="139.584" height="139.584" filterUnits="userSpaceOnUse"><feOffset dy="3" input="SourceAlpha"/><feGaussianBlur stdDeviation="3" result="j"/><feFlood flood-opacity="0.161"/><feComposite operator="in" in2="j"/><feComposite in="SourceGraphic"/></filter><filter id="k" x="143" y="234" width="92.198" height="87.908" filterUnits="userSpaceOnUse"><feOffset dy="3" input="SourceAlpha"/><feGaussianBlur stdDeviation="3" result="l"/><feFlood flood-opacity="0.161"/><feComposite operator="in" in2="l"/><feComposite in="SourceGraphic"/></filter><clipPath id="n"><rect width="1080" height="1080"/></clipPath></defs><g id="m" clip-path="url(#n)"><rect width="1080" height="1080" fill="#60c848"/><g transform="translate(252 672)" fill="#9d9d9d" stroke="#fff" stroke-width="8"><rect width="300" height="419" stroke="none"/><rect x="4" y="4" width="292" height="411" fill="none"/></g><g transform="translate(252 -10)" fill="#9d9d9d" stroke="#fff" stroke-width="8"><rect width="300" height="419" stroke="none"/><rect x="4" y="4" width="292" height="411" fill="none"/></g><g transform="translate(252 390)" fill="#9d9d9d" stroke="#fff" stroke-width="8"><rect width="837" height="300" stroke="none"/><rect x="4" y="4" width="829" height="292" fill="none"/></g><rect width="284" height="344" transform="translate(260 370)" fill="#9d9d9d"/><rect width="110" height="22" transform="translate(561 420)" fill="#fff"/><rect width="130" height="390" transform="translate(552)" fill="#c7c7c7"/><rect width="130" height="390" transform="translate(552 690)" fill="#c7c7c7"/><rect width="110" height="22" transform="translate(561 464)" fill="#fff"/><rect width="110" height="22" transform="translate(561 509)" fill="#fff"/><rect width="110" height="22" transform="translate(561 549)" fill="#fff"/><rect width="110" height="22" transform="translate(561 594)" fill="#fff"/><rect width="110" height="22" transform="translate(561 638)" fill="#fff"/><rect width="289" height="284" transform="translate(544 672) rotate(90)" fill="#9d9d9d"/><g transform="translate(942.499 1.5) rotate(90)"><line x2="395" transform="translate(-1.5 540.5)" fill="none" stroke="#fff" stroke-width="4"/></g><g transform="translate(1080 540.5) rotate(180)"><line x2="93.913" transform="translate(0)" fill="none" stroke="#fff" stroke-width="4"/></g><g transform="translate(939 540.5) rotate(180)"><line x2="93.913" transform="translate(0)" fill="none" stroke="#fff" stroke-width="4"/></g><g transform="translate(798 540.5) rotate(180)"><line x2="93.913" transform="translate(0)" fill="none" stroke="#fff" stroke-width="4"/></g><g transform="translate(401.739 1056.891) rotate(-90)"><line x2="93.913" transform="translate(0)" fill="none" stroke="#fff" stroke-width="4"/></g><g transform="translate(401.739 916.022) rotate(-90)"><line x2="93.913" transform="translate(0)" fill="none" stroke="#fff" stroke-width="4"/></g><g transform="translate(401.739 775.152) rotate(-90)"><line x2="93.913" transform="translate(0)" fill="none" stroke="#fff" stroke-width="4"/></g><g transform="translate(259.009 396)"><line x2="144.981" transform="translate(0 0)" fill="none" stroke="#fff" stroke-width="4"/></g><g transform="translate(698.925 299)"><g transform="matrix(1, 0, 0, 1, -698.93, -299)" filter="url(#a)"><path d="M72.06,29.806,45.471,3.217a11.066,11.066,0,0,0-15.6,0L3.281,29.806a11.092,11.092,0,0,0,0,15.6L29.87,72a11.065,11.065,0,0,0,15.6,0L72.06,45.407A11.092,11.092,0,0,0,72.06,29.806Z" transform="translate(698.93 299)" fill="#495a79"/></g><path d="M290.389,45.407,263.8,72a11.161,11.161,0,0,1-7.8,3.217V0a11.162,11.162,0,0,1,7.8,3.217l26.589,26.589A11.092,11.092,0,0,1,290.389,45.407Z" transform="translate(-218.33)" fill="#42516d"/><path d="M94.4,58.528,67.806,31.939a6.6,6.6,0,0,0-9.343,0L31.874,58.528a6.57,6.57,0,0,0,0,9.343L58.463,94.46a6.705,6.705,0,0,0,9.343,0L94.4,67.871A6.57,6.57,0,0,0,94.4,58.528Z" transform="translate(-25.465 -25.593)" fill="#e0e4ec"/><path d="M287.26,67.871,260.671,94.46a6.455,6.455,0,0,1-4.671,1.9V30a6.725,6.725,0,0,1,4.671,1.939L287.26,58.528A6.57,6.57,0,0,1,287.26,67.871Z" transform="translate(-218.33 -25.593)" fill="#d1d7e3"/><rect width="33.649" height="33.649" transform="translate(13.877 37.606) rotate(-45)" fill="#ffbc33"/><path d="M279.794,117.822,256,94.028v47.587Z" transform="translate(-218.33 -80.215)" fill="#f39e31"/></g><g transform="translate(698.925 707)"><g transform="matrix(1, 0, 0, 1, -698.93, -707)" filter="url(#c)"><path d="M72.06,29.806,45.471,3.217a11.066,11.066,0,0,0-15.6,0L3.281,29.806a11.092,11.092,0,0,0,0,15.6L29.87,72a11.065,11.065,0,0,0,15.6,0L72.06,45.407A11.092,11.092,0,0,0,72.06,29.806Z" transform="translate(698.93 707)" fill="#495a79"/></g><path d="M290.389,45.407,263.8,72a11.161,11.161,0,0,1-7.8,3.217V0a11.162,11.162,0,0,1,7.8,3.217l26.589,26.589A11.092,11.092,0,0,1,290.389,45.407Z" transform="translate(-218.33)" fill="#42516d"/><path d="M94.4,58.528,67.806,31.939a6.6,6.6,0,0,0-9.343,0L31.874,58.528a6.57,6.57,0,0,0,0,9.343L58.463,94.46a6.705,6.705,0,0,0,9.343,0L94.4,67.871A6.57,6.57,0,0,0,94.4,58.528Z" transform="translate(-25.465 -25.593)" fill="#e0e4ec"/><path d="M287.26,67.871,260.671,94.46a6.455,6.455,0,0,1-4.671,1.9V30a6.725,6.725,0,0,1,4.671,1.939L287.26,58.528A6.57,6.57,0,0,1,287.26,67.871Z" transform="translate(-218.33 -25.593)" fill="#d1d7e3"/><rect width="33.649" height="33.649" transform="translate(13.877 37.606) rotate(-45)" fill="#ffbc33"/><path d="M279.794,117.822,256,94.028v47.587Z" transform="translate(-218.33 -80.215)" fill="#f39e31"/></g><g transform="translate(2268.173 -2131.221) rotate(90)"><g transform="translate(2468.22 1387.169) rotate(45)"><g transform="matrix(-0.71, -0.71, 0.71, -0.71, 384.67, 861.26)" filter="url(#e)"><path d="M82.3,34.075,51.9,3.678a12.651,12.651,0,0,0-17.836,0l-30.4,30.4a12.681,12.681,0,0,0,0,17.835l30.4,30.4a12.65,12.65,0,0,0,17.836,0l30.4-30.4A12.681,12.681,0,0,0,82.3,34.075Z" transform="translate(881 337) rotate(135)" fill="#495a79"/></g><path d="M73.705,32.614l-30.4-30.4a7.541,7.541,0,0,0-10.681,0l-30.4,30.4a7.511,7.511,0,0,0,0,10.681l30.4,30.4a7.666,7.666,0,0,0,10.681,0l30.4-30.4A7.511,7.511,0,0,0,73.705,32.614Z" transform="translate(5.013 5.038)" fill="#e0e4ec"/></g><rect width="5.126" height="17.088" transform="translate(2443.338 1450.535) rotate(-90)" fill="#42516d"/><path d="M0,0,4.165-2,8.544,0V14.952H0Z" transform="translate(2472.387 1437.292) rotate(180)" fill="#42516d"/><path d="M.02.005s7.5-.291,11.257,3.454,3.734,11.52,3.734,11.52H6.478S6.124,11.8,4.5,10.219A8.054,8.054,0,0,0,0,8.474Z" transform="translate(2478.865 1452.191) rotate(180)" fill="#42516d"/><path d="M0,0H8.544V14.952L4.063,17.279,0,14.952Z" transform="translate(2493.747 1443.7) rotate(90)" fill="#42516d"/></g><g transform="translate(1637.173 -2113.221) rotate(90)"><g transform="translate(2468.22 1387.169) rotate(45)"><g transform="matrix(-0.71, -0.71, 0.71, -0.71, -74.24, 427.8)" filter="url(#g)"><path d="M82.3,34.075,51.9,3.678a12.651,12.651,0,0,0-17.836,0l-30.4,30.4a12.681,12.681,0,0,0,0,17.835l30.4,30.4a12.65,12.65,0,0,0,17.836,0l30.4-30.4A12.681,12.681,0,0,0,82.3,34.075Z" transform="translate(250 355) rotate(135)" fill="#495a79"/></g><path d="M73.705,32.614l-30.4-30.4a7.541,7.541,0,0,0-10.681,0l-30.4,30.4a7.511,7.511,0,0,0,0,10.681l30.4,30.4a7.666,7.666,0,0,0,10.681,0l30.4-30.4A7.511,7.511,0,0,0,73.705,32.614Z" transform="translate(5.013 5.038)" fill="#e0e4ec"/></g><rect width="5.126" height="17.088" transform="translate(2443.338 1450.535) rotate(-90)" fill="#42516d"/><path d="M0,0,4.165-2,8.544,0V14.952H0Z" transform="translate(2472.387 1437.292) rotate(180)" fill="#42516d"/><path d="M.02.005s7.5-.291,11.257,3.454,3.734,11.52,3.734,11.52H6.478S6.124,11.8,4.5,10.219A8.054,8.054,0,0,0,0,8.474Z" transform="translate(2478.865 1452.191) rotate(180)" fill="#42516d"/><path d="M0,0H8.544V14.952L4.063,17.279,0,14.952Z" transform="translate(2493.747 1443.7) rotate(90)" fill="#42516d"/></g><g transform="translate(2184.173 -1644.221) rotate(90)"><g transform="translate(2468.22 1387.169) rotate(45)"><g transform="matrix(-0.71, -0.71, 0.71, -0.71, -19.09, 1146.22)" filter="url(#i)"><path d="M82.3,34.075,51.9,3.678a12.651,12.651,0,0,0-17.836,0l-30.4,30.4a12.681,12.681,0,0,0,0,17.835l30.4,30.4a12.65,12.65,0,0,0,17.836,0l30.4-30.4A12.681,12.681,0,0,0,82.3,34.075Z" transform="translate(797 824) rotate(135)" fill="#495a79"/></g><path d="M73.705,32.614l-30.4-30.4a7.541,7.541,0,0,0-10.681,0l-30.4,30.4a7.511,7.511,0,0,0,0,10.681l30.4,30.4a7.666,7.666,0,0,0,10.681,0l30.4-30.4A7.511,7.511,0,0,0,73.705,32.614Z" transform="translate(5.013 5.038)" fill="#e0e4ec"/></g><rect width="5.126" height="17.088" transform="translate(2443.338 1450.535) rotate(-90)" fill="#42516d"/><path d="M0,0,4.165-2,8.544,0V14.952H0Z" transform="translate(2472.387 1437.292) rotate(180)" fill="#42516d"/><path d="M.02.005s7.5-.291,11.257,3.454,3.734,11.52,3.734,11.52H6.478S6.124,11.8,4.5,10.219A8.054,8.054,0,0,0,0,8.474Z" transform="translate(2478.865 1452.191) rotate(180)" fill="#42516d"/><path d="M0,0H8.544V14.952L4.063,17.279,0,14.952Z" transform="translate(2493.747 1443.7) rotate(90)" fill="#42516d"/></g><g transform="translate(152 225.199)"><g transform="matrix(1, 0, 0, 1, -152, -225.2)" filter="url(#k)"><path d="M72.757,20.279A10.726,10.726,0,0,0,63.323,14.8H10.875a10.726,10.726,0,0,0-9.434,5.478,10.856,10.856,0,0,0,.087,10.956L27.752,79.405a10.889,10.889,0,0,0,18.695,0L72.671,31.235A10.856,10.856,0,0,0,72.757,20.279Z" transform="translate(152 225.2)" fill="#d94158"/></g><path d="M291.572,31.235,265.347,79.405a10.854,10.854,0,0,1-9.347,5.3V14.8h26.224a10.726,10.726,0,0,1,9.434,5.478A10.856,10.856,0,0,1,291.572,31.235Z" transform="translate(-218.901 0)" fill="#cc2944"/><path d="M116.6,75.888a2.192,2.192,0,0,0-1.869-1.087H62.277a2.192,2.192,0,0,0-1.869,1.087,2.158,2.158,0,0,0,0,2.174l26.181,48.214a1.755,1.755,0,0,0,1.609,1.043h.3a2.206,2.206,0,0,0,1.869-1.043L116.6,78.105A2.24,2.24,0,0,0,116.6,75.888Z" transform="translate(-51.403 -51.305)" fill="#e0e4ec"/><path d="M284.094,78.105l-26.224,48.171A2.206,2.206,0,0,1,256,127.319V74.8h26.224a2.192,2.192,0,0,1,1.869,1.087A2.24,2.24,0,0,1,284.094,78.105Z" transform="translate(-218.901 -51.305)" fill="#d1d7e3"/></g></g></svg>