<svg xmlns="http://www.w3.org/2000/svg" xmlns:xlink="http://www.w3.org/1999/xlink" width="1080" height="1080" viewBox="0 0 1080 1080"><defs><filter id="a" x="703" y="710" width="92.198" height="87.908" filterUnits="userSpaceOnUse"><feOffset dy="3" input="SourceAlpha"/><feGaussianBlur stdDeviation="3" result="b"/><feFlood flood-opacity="0.161"/><feComposite operator="in" in2="b"/><feComposite in="SourceGraphic"/></filter><filter id="c" x="282" y="707" width="93.191" height="93.213" filterUnits="userSpaceOnUse"><feOffset dy="3" input="SourceAlpha"/><feGaussianBlur stdDeviation="3" result="d"/><feFlood flood-opacity="0.161"/><feComposite operator="in" in2="d"/><feComposite in="SourceGraphic"/></filter><filter id="e" x="703" y="286" width="93.191" height="93.213" filterUnits="userSpaceOnUse"><feOffset dy="3" input="SourceAlpha"/><feGaussianBlur stdDeviation="3" result="f"/><feFlood flood-opacity="0.161"/><feComposite operator="in" in2="f"/><feComposite in="SourceGraphic"/></filter><clipPath id="h"><rect width="1080" height="1080"/></clipPath></defs><g id="g" clip-path="url(#h)"><rect width="1080" height="1080" fill="#60c848"/><g transform="translate(390 672)" fill="#9d9d9d" stroke="#fff" stroke-width="8"><rect width="300" height="419" stroke="none"/><rect x="4" y="4" width="292" height="411" fill="none"/></g><g transform="translate(-11 390)" fill="#9d9d9d" stroke="#fff" stroke-width="8"><rect width="1100" height="300" stroke="none"/><rect x="4" y="4" width="1092" height="292" fill="none"/></g><rect width="215" height="284" transform="translate(128 398)" fill="#9d9d9d"/><rect width="289" height="284" transform="translate(682 672) rotate(90)" fill="#9d9d9d"/><g transform="translate(-0.5 1078.5) rotate(-90)"><line x2="395" transform="translate(-1.5 540.5)" fill="none" stroke="#fff" stroke-width="4"/></g><g transform="translate(1080 540.5) rotate(180)"><line x2="93.913" transform="translate(0)" fill="none" stroke="#fff" stroke-width="4"/></g><g transform="translate(939.13 540.5) rotate(180)"><line x2="93.913" transform="translate(0)" fill="none" stroke="#fff" stroke-width="4"/></g><g transform="translate(798.261 540.5) rotate(180)"><line x2="93.913" transform="translate(0)" fill="none" stroke="#fff" stroke-width="4"/></g><g transform="translate(657.391 540.5) rotate(180)"><line x2="93.913" transform="translate(0)" fill="none" stroke="#fff" stroke-width="4"/></g><g transform="translate(682.99 684) rotate(180)"><line x2="144.981" transform="translate(0 0)" fill="none" stroke="#fff" stroke-width="4"/></g><g transform="translate(516.522 540.5) rotate(180)"><line x2="93.913" transform="translate(0)" fill="none" stroke="#fff" stroke-width="4"/></g><g transform="translate(375.652 540.5) rotate(180)"><line x2="93.913" transform="translate(0)" fill="none" stroke="#fff" stroke-width="4"/></g><g transform="translate(234.783 540.5) rotate(180)"><line x2="93.913" transform="translate(0)" fill="none" stroke="#fff" stroke-width="4"/></g><g transform="translate(93.913 540.5) rotate(180)"><line x2="93.913" transform="translate(0)" fill="none" stroke="#fff" stroke-width="4"/></g><g transform="translate(712 701.199)"><g transform="matrix(1, 0, 0, 1, -712, -701.2)" filter="url(#a)"><path d="M72.757,20.279A10.726,10.726,0,0,0,63.323,14.8H10.875a10.726,10.726,0,0,0-9.434,5.478,10.856,10.856,0,0,0,.087,10.956L27.752,79.405a10.889,10.889,0,0,0,18.695,0L72.671,31.235A10.856,10.856,0,0,0,72.757,20.279Z" transform="translate(712 701.2)" fill="#d94158"/></g><path d="M291.572,31.235,265.347,79.405a10.854,10.854,0,0,1-9.347,5.3V14.8h26.224a10.726,10.726,0,0,1,9.434,5.478A10.856,10.856,0,0,1,291.572,31.235Z" transform="translate(-218.901 0)" fill="#cc2944"/><path d="M116.6,75.888a2.192,2.192,0,0,0-1.869-1.087H62.277a2.192,2.192,0,0,0-1.869,1.087,2.158,2.158,0,0,0,0,2.174l26.181,48.214a1.755,1.755,0,0,0,1.609,1.043h.3a2.206,2.206,0,0,0,1.869-1.043L116.6,78.105A2.24,2.24,0,0,0,116.6,75.888Z" transform="translate(-51.403 -51.305)" fill="#e0e4ec"/><path d="M284.094,78.105l-26.224,48.171A2.206,2.206,0,0,1,256,127.319V74.8h26.224a2.192,2.192,0,0,1,1.869,1.087A2.24,2.24,0,0,1,284.094,78.105Z" transform="translate(-218.901 -51.305)" fill="#d1d7e3"/></g><g transform="translate(290.925 713)"><g transform="matrix(1, 0, 0, 1, -290.93, -713)" filter="url(#c)"><path d="M72.06,29.806,45.471,3.217a11.066,11.066,0,0,0-15.6,0L3.281,29.806a11.092,11.092,0,0,0,0,15.6L29.87,72a11.065,11.065,0,0,0,15.6,0L72.06,45.407A11.092,11.092,0,0,0,72.06,29.806Z" transform="translate(290.93 713)" fill="#495a79"/></g><path d="M290.389,45.407,263.8,72a11.161,11.161,0,0,1-7.8,3.217V0a11.162,11.162,0,0,1,7.8,3.217l26.589,26.589A11.092,11.092,0,0,1,290.389,45.407Z" transform="translate(-218.33)" fill="#42516d"/><path d="M94.4,58.528,67.806,31.939a6.6,6.6,0,0,0-9.343,0L31.874,58.528a6.57,6.57,0,0,0,0,9.343L58.463,94.46a6.705,6.705,0,0,0,9.343,0L94.4,67.871A6.57,6.57,0,0,0,94.4,58.528Z" transform="translate(-25.465 -25.593)" fill="#e0e4ec"/><path d="M287.26,67.871,260.671,94.46a6.455,6.455,0,0,1-4.671,1.9V30a6.725,6.725,0,0,1,4.671,1.939L287.26,58.528A6.57,6.57,0,0,1,287.26,67.871Z" transform="translate(-218.33 -25.593)" fill="#d1d7e3"/><rect width="33.649" height="33.649" transform="translate(13.877 37.606) rotate(-45)" fill="#ffbc33"/><path d="M279.794,117.822,256,94.028v47.587Z" transform="translate(-218.33 -80.215)" fill="#f39e31"/></g><g transform="translate(711.925 292)"><g transform="matrix(1, 0, 0, 1, -711.93, -292)" filter="url(#e)"><path d="M72.06,29.806,45.471,3.217a11.066,11.066,0,0,0-15.6,0L3.281,29.806a11.092,11.092,0,0,0,0,15.6L29.87,72a11.065,11.065,0,0,0,15.6,0L72.06,45.407A11.092,11.092,0,0,0,72.06,29.806Z" transform="translate(711.93 292)" fill="#495a79"/></g><path d="M290.389,45.407,263.8,72a11.161,11.161,0,0,1-7.8,3.217V0a11.162,11.162,0,0,1,7.8,3.217l26.589,26.589A11.092,11.092,0,0,1,290.389,45.407Z" transform="translate(-218.33)" fill="#42516d"/><path d="M94.4,58.528,67.806,31.939a6.6,6.6,0,0,0-9.343,0L31.874,58.528a6.57,6.57,0,0,0,0,9.343L58.463,94.46a6.705,6.705,0,0,0,9.343,0L94.4,67.871A6.57,6.57,0,0,0,94.4,58.528Z" transform="translate(-25.465 -25.593)" fill="#e0e4ec"/><path d="M287.26,67.871,260.671,94.46a6.455,6.455,0,0,1-4.671,1.9V30a6.725,6.725,0,0,1,4.671,1.939L287.26,58.528A6.57,6.57,0,0,1,287.26,67.871Z" transform="translate(-218.33 -25.593)" fill="#d1d7e3"/><rect width="33.649" height="33.649" transform="translate(13.877 37.606) rotate(-45)" fill="#ffbc33"/><path d="M279.794,117.822,256,94.028v47.587Z" transform="translate(-218.33 -80.215)" fill="#f39e31"/></g></g></svg>