<svg xmlns="http://www.w3.org/2000/svg" xmlns:xlink="http://www.w3.org/1999/xlink" width="1080" height="1080" viewBox="0 0 1080 1080"><defs><filter id="a" x="191.5" y="803.5" width="121" height="24" filterUnits="userSpaceOnUse"><feOffset dy="3" input="SourceAlpha"/><feGaussianBlur stdDeviation="3" result="b"/><feFlood flood-opacity="0.161"/><feComposite operator="in" in2="b"/><feComposite in="SourceGraphic"/></filter><filter id="c" x="811" y="929" width="24" height="121" filterUnits="userSpaceOnUse"><feOffset dy="3" input="SourceAlpha"/><feGaussianBlur stdDeviation="3" result="d"/><feFlood flood-opacity="0.161"/><feComposite operator="in" in2="d"/><feComposite in="SourceGraphic"/></filter><filter id="e" x="413" y="36" width="24" height="121" filterUnits="userSpaceOnUse"><feOffset dy="3" input="SourceAlpha"/><feGaussianBlur stdDeviation="3" result="f"/><feFlood flood-opacity="0.161"/><feComposite operator="in" in2="f"/><feComposite in="SourceGraphic"/></filter><filter id="g" x="290.016" y="778.298" width="171.65" height="74.307" filterUnits="userSpaceOnUse"><feOffset dy="3" input="SourceAlpha"/><feGaussianBlur stdDeviation="3" result="h"/><feFlood flood-opacity="0.161"/><feComposite operator="in" in2="h"/><feComposite in="SourceGraphic"/></filter><filter id="i" x="387.513" y="135.626" width="74.307" height="171.65" filterUnits="userSpaceOnUse"><feOffset dy="3" input="SourceAlpha"/><feGaussianBlur stdDeviation="3" result="j"/><feFlood flood-opacity="0.161"/><feComposite operator="in" in2="j"/><feComposite in="SourceGraphic"/></filter><filter id="k" x="785.513" y="778.626" width="74.307" height="171.65" filterUnits="userSpaceOnUse"><feOffset dy="3" input="SourceAlpha"/><feGaussianBlur stdDeviation="3" result="l"/><feFlood flood-opacity="0.161"/><feComposite operator="in" in2="l"/><feComposite in="SourceGraphic"/></filter><filter id="m" x="227" y="779" width="74" height="74" filterUnits="userSpaceOnUse"><feOffset dy="3" input="SourceAlpha"/><feGaussianBlur stdDeviation="3" result="n"/><feFlood flood-opacity="0.161"/><feComposite operator="in" in2="n"/><feComposite in="SourceGraphic"/></filter><clipPath id="p"><rect width="1080" height="1080"/></clipPath></defs><g id="o" clip-path="url(#p)"><rect width="1080" height="1080" fill="#60c848"/><g transform="translate(473 672)" fill="#9d9d9d" stroke="#fff" stroke-width="8"><rect width="300" height="419" stroke="none"/><rect x="4" y="4" width="292" height="411" fill="none"/></g><g transform="translate(473 -10)" fill="#9d9d9d" stroke="#fff" stroke-width="8"><rect width="300" height="419" stroke="none"/><rect x="4" y="4" width="292" height="411" fill="none"/></g><g transform="translate(-10 317)" fill="#9d9d9d" stroke="#fff" stroke-width="8"><rect width="1099" height="446" stroke="none"/><rect x="4" y="4" width="1091" height="438" fill="none"/></g><rect width="284" height="344" transform="translate(481 370)" fill="#9d9d9d"/><rect width="130" height="317" transform="translate(343)" fill="#c7c7c7"/><rect width="130" height="317" transform="translate(343 763)" fill="#c7c7c7"/><rect width="130" height="369" transform="translate(0 893) rotate(-90)" fill="#c7c7c7"/><rect width="130" height="369" transform="translate(0 317) rotate(-90)" fill="#c7c7c7"/><rect width="289" height="284" transform="translate(765 672) rotate(90)" fill="#9d9d9d"/><rect width="129" height="284" transform="translate(765 252) rotate(90)" fill="#9d9d9d"/><g transform="translate(-13 469.5)"><line x2="330" transform="translate(0)" fill="none" stroke="#fff" stroke-width="4"/></g><g transform="translate(-13 612.5)"><line x2="330" transform="translate(0)" fill="none" stroke="#fff" stroke-width="4"/></g><g transform="translate(622.739 1056.891) rotate(-90)"><line x2="93.913" transform="translate(0)" fill="none" stroke="#fff" stroke-width="4"/></g><g transform="translate(622.739 257.891) rotate(-90)"><line x2="93.913" transform="translate(0)" fill="none" stroke="#fff" stroke-width="4"/></g><g transform="translate(622.739 916.022) rotate(-90)"><line x2="93.913" transform="translate(0)" fill="none" stroke="#fff" stroke-width="4"/></g><g transform="translate(622.739 117.022) rotate(-90)"><line x2="93.913" transform="translate(0)" fill="none" stroke="#fff" stroke-width="4"/></g><g transform="translate(317 757.276) rotate(-90)"><line x2="289.766" transform="translate(0 0)" fill="none" stroke="#fff" stroke-width="4"/></g><rect width="110" height="22" transform="translate(353 353)" fill="#fff"/><rect width="110" height="22" transform="translate(353 397)" fill="#fff"/><rect width="110" height="22" transform="translate(353 441)" fill="#fff"/><rect width="110" height="22" transform="translate(353 485)" fill="#fff"/><rect width="110" height="22" transform="translate(353 529)" fill="#fff"/><rect width="110" height="22" transform="translate(353 573)" fill="#fff"/><rect width="110" height="22" transform="translate(353 617)" fill="#fff"/><rect width="110" height="22" transform="translate(353 661)" fill="#fff"/><rect width="110" height="22" transform="translate(353 705)" fill="#fff"/><g transform="matrix(1, 0, 0, 1, 0, 0)" filter="url(#a)"><line x2="97" transform="translate(203.5 812.5)" fill="none" stroke="#42516d" stroke-linecap="round" stroke-width="6"/></g><g transform="matrix(1, 0, 0, 1, 0, 0)" filter="url(#c)"><line x2="97" transform="translate(823 938) rotate(90)" fill="none" stroke="#42516d" stroke-linecap="round" stroke-width="6"/></g><g transform="matrix(1, 0, 0, 1, 0, 0)" filter="url(#e)"><line x2="97" transform="translate(425 45) rotate(90)" fill="none" stroke="#42516d" stroke-linecap="round" stroke-width="6"/></g><g transform="translate(452.667 784.298) rotate(90)"><g transform="matrix(0, -1, 1, 0, -784.3, 452.67)" filter="url(#g)"><rect width="56.307" height="153.65" rx="10" transform="translate(452.67 784.3) rotate(90)" fill="#495a79"/></g><path d="M0,0H18.233a10,10,0,0,1,10,10V143.65a10,10,0,0,1-10,10H0a0,0,0,0,1,0,0V0A0,0,0,0,1,0,0Z" transform="translate(28.074 0)" fill="#42516d"/><path d="M220.2,124.4a24.2,24.2,0,1,1,24.2-24.2A24.223,24.223,0,0,1,220.2,124.4Z" transform="translate(-192.274 -72.219)" fill="#e55639"/><path d="M280.2,100.2A24.271,24.271,0,0,1,256,124.4V76A24.27,24.27,0,0,1,280.2,100.2Z" transform="translate(-228.075 -72.219)" fill="#cf4529"/><path d="M244.4,220.2A24.2,24.2,0,1,1,220.2,196,24.271,24.271,0,0,1,244.4,220.2Z" transform="translate(-192.274 -143.82)" fill="#ffde33" opacity="0.35"/><path d="M244.4,340.2A24.2,24.2,0,1,1,220.2,316,24.271,24.271,0,0,1,244.4,340.2Z" transform="translate(-192.274 -215.422)" fill="#29cc96" opacity="0.35"/></g><g transform="translate(452.819 295.276) rotate(180)"><g transform="matrix(-1, 0, 0, -1, 452.82, 295.28)" filter="url(#i)"><rect width="56.307" height="153.65" rx="10" transform="translate(452.82 295.28) rotate(180)" fill="#495a79"/></g><path d="M0,0H18.233a10,10,0,0,1,10,10V143.65a10,10,0,0,1-10,10H0a0,0,0,0,1,0,0V0A0,0,0,0,1,0,0Z" transform="translate(28.074 0)" fill="#42516d"/><path d="M220.2,124.4a24.2,24.2,0,1,1,24.2-24.2A24.223,24.223,0,0,1,220.2,124.4Z" transform="translate(-192.274 -72.219)" fill="#e55639" opacity="0.35"/><path d="M244.4,220.2A24.2,24.2,0,1,1,220.2,196,24.271,24.271,0,0,1,244.4,220.2Z" transform="translate(-192.274 -143.82)" fill="#ffde33" opacity="0.35"/><path d="M244.4,340.2A24.2,24.2,0,1,1,220.2,316,24.271,24.271,0,0,1,244.4,340.2Z" transform="translate(-192.274 -215.422)" fill="#29cc96"/><path d="M280.2,100.2A24.271,24.271,0,0,1,256,124.4V76A24.27,24.27,0,0,1,280.2,100.2Z" transform="translate(-228.075 24.578)" fill="#25b987"/></g><g transform="translate(794.513 784.626)"><g transform="matrix(1, 0, 0, 1, -794.51, -784.63)" filter="url(#k)"><rect width="56.307" height="153.65" rx="10" transform="translate(794.51 784.63)" fill="#495a79"/></g><path d="M0,0H18.233a10,10,0,0,1,10,10V143.65a10,10,0,0,1-10,10H0a0,0,0,0,1,0,0V0A0,0,0,0,1,0,0Z" transform="translate(28.074 0)" fill="#42516d"/><path d="M220.2,124.4a24.2,24.2,0,1,1,24.2-24.2A24.223,24.223,0,0,1,220.2,124.4Z" transform="translate(-192.274 -72.219)" fill="#e55639" opacity="0.35"/><path d="M244.4,220.2A24.2,24.2,0,1,1,220.2,196,24.271,24.271,0,0,1,244.4,220.2Z" transform="translate(-192.274 -143.82)" fill="#ffde33" opacity="0.35"/><path d="M244.4,340.2A24.2,24.2,0,1,1,220.2,316,24.271,24.271,0,0,1,244.4,340.2Z" transform="translate(-192.274 -215.422)" fill="#29cc96"/><path d="M280.2,100.2A24.271,24.271,0,0,1,256,124.4V76A24.27,24.27,0,0,1,280.2,100.2Z" transform="translate(-228.075 24.578)" fill="#25b987"/></g><g transform="translate(387.159 786.396) rotate(90)"><g transform="matrix(0, -1, 1, 0, -786.4, 387.16)" filter="url(#m)"><rect width="56" height="56" rx="10" transform="translate(292 785) rotate(90)" fill="#495a79"/></g><path d="M0,0H19A10,10,0,0,1,29,10V46A10,10,0,0,1,19,56H0a0,0,0,0,1,0,0V0A0,0,0,0,1,0,0Z" transform="translate(25.604 95.159)" fill="#42516d"/></g><g transform="translate(-7 -11)"><path d="M39.428,9.941H19.386v-7.3A2.629,2.629,0,0,0,15,.684L1.031,13.114a2.686,2.686,0,0,0,0,4.232L15,29.777a2.63,2.63,0,0,0,4.391-1.957v-7.3H39.428a2.619,2.619,0,0,0,2.645-2.645v-5.29A2.619,2.619,0,0,0,39.428,9.941Z" transform="translate(255.9 844.609) rotate(-90)" fill="#25b987"/><path d="M20.5,2.645v5.29a2.494,2.494,0,0,1-2.369,2.645H0V0H18.13A2.494,2.494,0,0,1,20.5,2.645Z" transform="translate(265.841 822.933) rotate(-90)" fill="#29cc96"/></g></g></svg>