<svg xmlns="http://www.w3.org/2000/svg" xmlns:xlink="http://www.w3.org/1999/xlink" width="1080" height="1080" viewBox="0 0 1080 1080"><defs><filter id="a" x="783" y="749" width="92.198" height="87.908" filterUnits="userSpaceOnUse"><feOffset dy="3" input="SourceAlpha"/><feGaussianBlur stdDeviation="3" result="b"/><feFlood flood-opacity="0.161"/><feComposite operator="in" in2="b"/><feComposite in="SourceGraphic"/></filter><filter id="c" x="243" y="163" width="92.198" height="87.908" filterUnits="userSpaceOnUse"><feOffset dy="3" input="SourceAlpha"/><feGaussianBlur stdDeviation="3" result="d"/><feFlood flood-opacity="0.161"/><feComposite operator="in" in2="d"/><feComposite in="SourceGraphic"/></filter><filter id="e" x="772" y="243" width="92.198" height="87.908" filterUnits="userSpaceOnUse"><feOffset dy="3" input="SourceAlpha"/><feGaussianBlur stdDeviation="3" result="f"/><feFlood flood-opacity="0.161"/><feComposite operator="in" in2="f"/><feComposite in="SourceGraphic"/></filter><filter id="g" x="206" y="755" width="92.198" height="87.908" filterUnits="userSpaceOnUse"><feOffset dy="3" input="SourceAlpha"/><feGaussianBlur stdDeviation="3" result="h"/><feFlood flood-opacity="0.161"/><feComposite operator="in" in2="h"/><feComposite in="SourceGraphic"/></filter><filter id="i" x="783" y="830" width="92.5" height="92.5" filterUnits="userSpaceOnUse"><feOffset dy="3" input="SourceAlpha"/><feGaussianBlur stdDeviation="3" result="j"/><feFlood flood-opacity="0.161"/><feComposite operator="in" in2="j"/><feComposite in="SourceGraphic"/></filter><filter id="k" x="243" y="244" width="92.5" height="92.5" filterUnits="userSpaceOnUse"><feOffset dy="3" input="SourceAlpha"/><feGaussianBlur stdDeviation="3" result="l"/><feFlood flood-opacity="0.161"/><feComposite operator="in" in2="l"/><feComposite in="SourceGraphic"/></filter><filter id="m" x="852" y="241" width="92.5" height="92.5" filterUnits="userSpaceOnUse"><feOffset dy="3" input="SourceAlpha"/><feGaussianBlur stdDeviation="3" result="n"/><feFlood flood-opacity="0.161"/><feComposite operator="in" in2="n"/><feComposite in="SourceGraphic"/></filter><filter id="o" x="125" y="753" width="92.5" height="92.5" filterUnits="userSpaceOnUse"><feOffset dy="3" input="SourceAlpha"/><feGaussianBlur stdDeviation="3" result="p"/><feFlood flood-opacity="0.161"/><feComposite operator="in" in2="p"/><feComposite in="SourceGraphic"/></filter><clipPath id="r"><rect width="1080" height="1080"/></clipPath></defs><g id="q" clip-path="url(#r)"><rect width="1080" height="1080" fill="#60c848"/><g transform="translate(390 791)" fill="#9d9d9d" stroke="#fff" stroke-width="8"><rect width="300" height="300" stroke="none"/><rect x="4" y="4" width="292" height="292" fill="none"/></g><g transform="translate(390 -11)" fill="#9d9d9d" stroke="#fff" stroke-width="8"><rect width="300" height="300" stroke="none"/><rect x="4" y="4" width="292" height="292" fill="none"/></g><g transform="translate(791 390)" fill="#9d9d9d" stroke="#fff" stroke-width="8"><rect width="300" height="300" stroke="none"/><rect x="4" y="4" width="292" height="292" fill="none"/></g><g transform="translate(-11 390)" fill="#9d9d9d" stroke="#fff" stroke-width="8"><rect width="300" height="300" stroke="none"/><rect x="4" y="4" width="292" height="292" fill="none"/></g><g transform="translate(247 247)" fill="#9d9d9d" stroke="#fff" stroke-width="8"><circle cx="293" cy="293" r="293" stroke="none"/><circle cx="293" cy="293" r="289" fill="none"/></g><rect width="215" height="284" transform="translate(781 398)" fill="#9d9d9d"/><rect width="215" height="284" transform="translate(128 398)" fill="#9d9d9d"/><rect width="215" height="284" transform="translate(682 139) rotate(90)" fill="#9d9d9d"/><rect width="215" height="284" transform="translate(682 746) rotate(90)" fill="#9d9d9d"/><g transform="translate(391 391)" fill="#60c848" stroke="#fff" stroke-width="8"><circle cx="149.5" cy="149.5" r="149.5" stroke="none"/><circle cx="149.5" cy="149.5" r="145.5" fill="none"/></g><line x2="251" transform="translate(-1.5 540.5)" fill="none" stroke="#fff" stroke-width="4"/><g transform="translate(1080.5 1.5) rotate(90)"><line x2="251" transform="translate(-1.5 540.5)" fill="none" stroke="#fff" stroke-width="4"/></g><g transform="translate(-0.5 1078.5) rotate(-90)"><line x2="251" transform="translate(-1.5 540.5)" fill="none" stroke="#fff" stroke-width="4"/></g><g transform="translate(1079 1081) rotate(180)"><line x2="251" transform="translate(-1.5 540.5)" fill="none" stroke="#fff" stroke-width="4"/></g><g transform="translate(792 740.199)"><g transform="matrix(1, 0, 0, 1, -792, -740.2)" filter="url(#a)"><path d="M72.757,20.279A10.726,10.726,0,0,0,63.323,14.8H10.875a10.726,10.726,0,0,0-9.434,5.478,10.856,10.856,0,0,0,.087,10.956L27.752,79.405a10.889,10.889,0,0,0,18.695,0L72.671,31.235A10.856,10.856,0,0,0,72.757,20.279Z" transform="translate(792 740.2)" fill="#d94158"/></g><path d="M291.572,31.235,265.347,79.405a10.854,10.854,0,0,1-9.347,5.3V14.8h26.224a10.726,10.726,0,0,1,9.434,5.478A10.856,10.856,0,0,1,291.572,31.235Z" transform="translate(-218.901 0)" fill="#cc2944"/><path d="M116.6,75.888a2.192,2.192,0,0,0-1.869-1.087H62.277a2.192,2.192,0,0,0-1.869,1.087,2.158,2.158,0,0,0,0,2.174l26.181,48.214a1.755,1.755,0,0,0,1.609,1.043h.3a2.206,2.206,0,0,0,1.869-1.043L116.6,78.105A2.24,2.24,0,0,0,116.6,75.888Z" transform="translate(-51.403 -51.305)" fill="#e0e4ec"/><path d="M284.094,78.105l-26.224,48.171A2.206,2.206,0,0,1,256,127.319V74.8h26.224a2.192,2.192,0,0,1,1.869,1.087A2.24,2.24,0,0,1,284.094,78.105Z" transform="translate(-218.901 -51.305)" fill="#d1d7e3"/></g><g transform="translate(252 154.199)"><g transform="matrix(1, 0, 0, 1, -252, -154.2)" filter="url(#c)"><path d="M72.757,20.279A10.726,10.726,0,0,0,63.323,14.8H10.875a10.726,10.726,0,0,0-9.434,5.478,10.856,10.856,0,0,0,.087,10.956L27.752,79.405a10.889,10.889,0,0,0,18.695,0L72.671,31.235A10.856,10.856,0,0,0,72.757,20.279Z" transform="translate(252 154.2)" fill="#d94158"/></g><path d="M291.572,31.235,265.347,79.405a10.854,10.854,0,0,1-9.347,5.3V14.8h26.224a10.726,10.726,0,0,1,9.434,5.478A10.856,10.856,0,0,1,291.572,31.235Z" transform="translate(-218.901 0)" fill="#cc2944"/><path d="M116.6,75.888a2.192,2.192,0,0,0-1.869-1.087H62.277a2.192,2.192,0,0,0-1.869,1.087,2.158,2.158,0,0,0,0,2.174l26.181,48.214a1.755,1.755,0,0,0,1.609,1.043h.3a2.206,2.206,0,0,0,1.869-1.043L116.6,78.105A2.24,2.24,0,0,0,116.6,75.888Z" transform="translate(-51.403 -51.305)" fill="#e0e4ec"/><path d="M284.094,78.105l-26.224,48.171A2.206,2.206,0,0,1,256,127.319V74.8h26.224a2.192,2.192,0,0,1,1.869,1.087A2.24,2.24,0,0,1,284.094,78.105Z" transform="translate(-218.901 -51.305)" fill="#d1d7e3"/></g><g transform="translate(781 234.199)"><g transform="matrix(1, 0, 0, 1, -781, -234.2)" filter="url(#e)"><path d="M72.757,20.279A10.726,10.726,0,0,0,63.323,14.8H10.875a10.726,10.726,0,0,0-9.434,5.478,10.856,10.856,0,0,0,.087,10.956L27.752,79.405a10.889,10.889,0,0,0,18.695,0L72.671,31.235A10.856,10.856,0,0,0,72.757,20.279Z" transform="translate(781 234.2)" fill="#d94158"/></g><path d="M291.572,31.235,265.347,79.405a10.854,10.854,0,0,1-9.347,5.3V14.8h26.224a10.726,10.726,0,0,1,9.434,5.478A10.856,10.856,0,0,1,291.572,31.235Z" transform="translate(-218.901 0)" fill="#cc2944"/><path d="M116.6,75.888a2.192,2.192,0,0,0-1.869-1.087H62.277a2.192,2.192,0,0,0-1.869,1.087,2.158,2.158,0,0,0,0,2.174l26.181,48.214a1.755,1.755,0,0,0,1.609,1.043h.3a2.206,2.206,0,0,0,1.869-1.043L116.6,78.105A2.24,2.24,0,0,0,116.6,75.888Z" transform="translate(-51.403 -51.305)" fill="#e0e4ec"/><path d="M284.094,78.105l-26.224,48.171A2.206,2.206,0,0,1,256,127.319V74.8h26.224a2.192,2.192,0,0,1,1.869,1.087A2.24,2.24,0,0,1,284.094,78.105Z" transform="translate(-218.901 -51.305)" fill="#d1d7e3"/></g><g transform="translate(215 746.199)"><g transform="matrix(1, 0, 0, 1, -215, -746.2)" filter="url(#g)"><path d="M72.757,20.279A10.726,10.726,0,0,0,63.323,14.8H10.875a10.726,10.726,0,0,0-9.434,5.478,10.856,10.856,0,0,0,.087,10.956L27.752,79.405a10.889,10.889,0,0,0,18.695,0L72.671,31.235A10.856,10.856,0,0,0,72.757,20.279Z" transform="translate(215 746.2)" fill="#d94158"/></g><path d="M291.572,31.235,265.347,79.405a10.854,10.854,0,0,1-9.347,5.3V14.8h26.224a10.726,10.726,0,0,1,9.434,5.478A10.856,10.856,0,0,1,291.572,31.235Z" transform="translate(-218.901 0)" fill="#cc2944"/><path d="M116.6,75.888a2.192,2.192,0,0,0-1.869-1.087H62.277a2.192,2.192,0,0,0-1.869,1.087,2.158,2.158,0,0,0,0,2.174l26.181,48.214a1.755,1.755,0,0,0,1.609,1.043h.3a2.206,2.206,0,0,0,1.869-1.043L116.6,78.105A2.24,2.24,0,0,0,116.6,75.888Z" transform="translate(-51.403 -51.305)" fill="#e0e4ec"/><path d="M284.094,78.105l-26.224,48.171A2.206,2.206,0,0,1,256,127.319V74.8h26.224a2.192,2.192,0,0,1,1.869,1.087A2.24,2.24,0,0,1,284.094,78.105Z" transform="translate(-218.901 -51.305)" fill="#d1d7e3"/></g><g transform="translate(792 836)"><g transform="matrix(1, 0, 0, 1, -792, -836)" filter="url(#i)"><path d="M37.25,0A37.25,37.25,0,1,0,74.5,37.25,37.378,37.378,0,0,0,37.25,0Z" transform="translate(792 836)" fill="#4da6ff"/></g><path d="M293.25,37.25A37.378,37.378,0,0,1,256,74.5V0A37.378,37.378,0,0,1,293.25,37.25Z" transform="translate(-218.75)" fill="#4596e6"/><g transform="translate(15.424 12.005)"><path d="M257.828,262.6a2.2,2.2,0,0,1,1.883-1.971,12.853,12.853,0,0,0,7.39-4.171l1.743-1.98-2.206-1.3a1.114,1.114,0,0,1,.071-1.958l9.318-4.622a2.183,2.183,0,0,1,3.148,1.811l.69,10.4a1.114,1.114,0,0,1-1.665,1.041l-1.943-1.111-1.14,1.609a21.92,21.92,0,0,1-15.054,9.073,2.215,2.215,0,0,1-2.539-2.313C257.621,265.667,257.741,263.893,257.828,262.6Z" transform="translate(-235.472 -222.524)" fill="#e0e4ec"/><path d="M201.754,99.881a2.164,2.164,0,0,1-2.614-.629,13.042,13.042,0,0,0-7.339-4.339l-2.611-.524V96.94a1.114,1.114,0,0,1-1.731.928l-8.665-5.759a2.174,2.174,0,0,1-.02-3.622c2.083-1.394,6.3-4.21,8.678-5.8a1.114,1.114,0,0,1,1.733.924l0,2.195,1.974.19a22.077,22.077,0,0,1,15.369,8.515,2.217,2.217,0,0,1-.725,3.355Z" transform="translate(-167.363 -82.504)" fill="#e0e4ec"/><path d="M119.482,215.152a2.177,2.177,0,0,1-3.134,1.824c-2.808-1.386-6.963-3.439-9.351-4.619a1.114,1.114,0,0,1-.062-1.965l1.911-1.1-.84-1.814a21.781,21.781,0,0,1-.3-17.57,2.216,2.216,0,0,1,3.267-1.03l3.757,2.507a2.155,2.155,0,0,1,.758,2.558,13.236,13.236,0,0,0-.079,8.53l.842,2.536,2.23-1.28a1.114,1.114,0,0,1,1.666,1.037Z" transform="translate(-106 -173.091)" fill="#e0e4ec"/></g></g><g transform="translate(252 250)"><g transform="matrix(1, 0, 0, 1, -252, -250)" filter="url(#k)"><path d="M37.25,0A37.25,37.25,0,1,0,74.5,37.25,37.378,37.378,0,0,0,37.25,0Z" transform="translate(252 250)" fill="#4da6ff"/></g><path d="M293.25,37.25A37.378,37.378,0,0,1,256,74.5V0A37.378,37.378,0,0,1,293.25,37.25Z" transform="translate(-218.75)" fill="#4596e6"/><g transform="translate(15.424 12.005)"><path d="M257.828,262.6a2.2,2.2,0,0,1,1.883-1.971,12.853,12.853,0,0,0,7.39-4.171l1.743-1.98-2.206-1.3a1.114,1.114,0,0,1,.071-1.958l9.318-4.622a2.183,2.183,0,0,1,3.148,1.811l.69,10.4a1.114,1.114,0,0,1-1.665,1.041l-1.943-1.111-1.14,1.609a21.92,21.92,0,0,1-15.054,9.073,2.215,2.215,0,0,1-2.539-2.313C257.621,265.667,257.741,263.893,257.828,262.6Z" transform="translate(-235.472 -222.524)" fill="#e0e4ec"/><path d="M201.754,99.881a2.164,2.164,0,0,1-2.614-.629,13.042,13.042,0,0,0-7.339-4.339l-2.611-.524V96.94a1.114,1.114,0,0,1-1.731.928l-8.665-5.759a2.174,2.174,0,0,1-.02-3.622c2.083-1.394,6.3-4.21,8.678-5.8a1.114,1.114,0,0,1,1.733.924l0,2.195,1.974.19a22.077,22.077,0,0,1,15.369,8.515,2.217,2.217,0,0,1-.725,3.355Z" transform="translate(-167.363 -82.504)" fill="#e0e4ec"/><path d="M119.482,215.152a2.177,2.177,0,0,1-3.134,1.824c-2.808-1.386-6.963-3.439-9.351-4.619a1.114,1.114,0,0,1-.062-1.965l1.911-1.1-.84-1.814a21.781,21.781,0,0,1-.3-17.57,2.216,2.216,0,0,1,3.267-1.03l3.757,2.507a2.155,2.155,0,0,1,.758,2.558,13.236,13.236,0,0,0-.079,8.53l.842,2.536,2.23-1.28a1.114,1.114,0,0,1,1.666,1.037Z" transform="translate(-106 -173.091)" fill="#e0e4ec"/></g></g><g transform="translate(861 247)"><g transform="matrix(1, 0, 0, 1, -861, -247)" filter="url(#m)"><path d="M37.25,0A37.25,37.25,0,1,0,74.5,37.25,37.378,37.378,0,0,0,37.25,0Z" transform="translate(861 247)" fill="#4da6ff"/></g><path d="M293.25,37.25A37.378,37.378,0,0,1,256,74.5V0A37.378,37.378,0,0,1,293.25,37.25Z" transform="translate(-218.75)" fill="#4596e6"/><g transform="translate(15.424 12.005)"><path d="M257.828,262.6a2.2,2.2,0,0,1,1.883-1.971,12.853,12.853,0,0,0,7.39-4.171l1.743-1.98-2.206-1.3a1.114,1.114,0,0,1,.071-1.958l9.318-4.622a2.183,2.183,0,0,1,3.148,1.811l.69,10.4a1.114,1.114,0,0,1-1.665,1.041l-1.943-1.111-1.14,1.609a21.92,21.92,0,0,1-15.054,9.073,2.215,2.215,0,0,1-2.539-2.313C257.621,265.667,257.741,263.893,257.828,262.6Z" transform="translate(-235.472 -222.524)" fill="#e0e4ec"/><path d="M201.754,99.881a2.164,2.164,0,0,1-2.614-.629,13.042,13.042,0,0,0-7.339-4.339l-2.611-.524V96.94a1.114,1.114,0,0,1-1.731.928l-8.665-5.759a2.174,2.174,0,0,1-.02-3.622c2.083-1.394,6.3-4.21,8.678-5.8a1.114,1.114,0,0,1,1.733.924l0,2.195,1.974.19a22.077,22.077,0,0,1,15.369,8.515,2.217,2.217,0,0,1-.725,3.355Z" transform="translate(-167.363 -82.504)" fill="#e0e4ec"/><path d="M119.482,215.152a2.177,2.177,0,0,1-3.134,1.824c-2.808-1.386-6.963-3.439-9.351-4.619a1.114,1.114,0,0,1-.062-1.965l1.911-1.1-.84-1.814a21.781,21.781,0,0,1-.3-17.57,2.216,2.216,0,0,1,3.267-1.03l3.757,2.507a2.155,2.155,0,0,1,.758,2.558,13.236,13.236,0,0,0-.079,8.53l.842,2.536,2.23-1.28a1.114,1.114,0,0,1,1.666,1.037Z" transform="translate(-106 -173.091)" fill="#e0e4ec"/></g></g><g transform="translate(134 759)"><g transform="matrix(1, 0, 0, 1, -134, -759)" filter="url(#o)"><path d="M37.25,0A37.25,37.25,0,1,0,74.5,37.25,37.378,37.378,0,0,0,37.25,0Z" transform="translate(134 759)" fill="#4da6ff"/></g><path d="M293.25,37.25A37.378,37.378,0,0,1,256,74.5V0A37.378,37.378,0,0,1,293.25,37.25Z" transform="translate(-218.75)" fill="#4596e6"/><g transform="translate(15.424 12.005)"><path d="M257.828,262.6a2.2,2.2,0,0,1,1.883-1.971,12.853,12.853,0,0,0,7.39-4.171l1.743-1.98-2.206-1.3a1.114,1.114,0,0,1,.071-1.958l9.318-4.622a2.183,2.183,0,0,1,3.148,1.811l.69,10.4a1.114,1.114,0,0,1-1.665,1.041l-1.943-1.111-1.14,1.609a21.92,21.92,0,0,1-15.054,9.073,2.215,2.215,0,0,1-2.539-2.313C257.621,265.667,257.741,263.893,257.828,262.6Z" transform="translate(-235.472 -222.524)" fill="#e0e4ec"/><path d="M201.754,99.881a2.164,2.164,0,0,1-2.614-.629,13.042,13.042,0,0,0-7.339-4.339l-2.611-.524V96.94a1.114,1.114,0,0,1-1.731.928l-8.665-5.759a2.174,2.174,0,0,1-.02-3.622c2.083-1.394,6.3-4.21,8.678-5.8a1.114,1.114,0,0,1,1.733.924l0,2.195,1.974.19a22.077,22.077,0,0,1,15.369,8.515,2.217,2.217,0,0,1-.725,3.355Z" transform="translate(-167.363 -82.504)" fill="#e0e4ec"/><path d="M119.482,215.152a2.177,2.177,0,0,1-3.134,1.824c-2.808-1.386-6.963-3.439-9.351-4.619a1.114,1.114,0,0,1-.062-1.965l1.911-1.1-.84-1.814a21.781,21.781,0,0,1-.3-17.57,2.216,2.216,0,0,1,3.267-1.03l3.757,2.507a2.155,2.155,0,0,1,.758,2.558,13.236,13.236,0,0,0-.079,8.53l.842,2.536,2.23-1.28a1.114,1.114,0,0,1,1.666,1.037Z" transform="translate(-106 -173.091)" fill="#e0e4ec"/></g></g></g></svg>